<svg xmlns="http://www.w3.org/2000/svg" viewBox="0 0 64 64">
  <defs>
    <linearGradient id="g" x1="0" y1="0" x2="0" y2="1">
      <stop offset="0%" stop-color="#d4b96a"/>
      <stop offset="100%" stop-color="#b8952e"/>
    </linearGradient>
    <filter id="glow">
      <feGaussianBlur stdDeviation="1.2" result="blur"/>
      <feMerge><feMergeNode in="blur"/><feMergeNode in="SourceGraphic"/></feMerge>
    </filter>
  </defs>
  <!-- Spirales vent -->
  <path d="M4 42c-4-1-6-5-5-9s5-5 7-3c2 2 0 4-1 4s-3-1-2-3" fill="none" stroke="#c9a84c" stroke-width="2.8" stroke-linecap="round" filter="url(#glow)"/>
  <path d="M60 42c4-1 6-5 5-9s-5-5-7-3c-2 2 0 4 1 4s3-1 2-3" fill="none" stroke="#c9a84c" stroke-width="2.8" stroke-linecap="round" filter="url(#glow)"/>
  <!-- Corps nuage -->
  <path d="M10 46 Q5 46 5 39 Q5 33 11 30 Q10 22 17 17 Q23 11 32 11 Q41 11 47 17 Q54 22 53 30 Q59 33 59 39 Q59 46 54 46 Z" fill="url(#g)" stroke="rgba(255,255,255,0.6)" stroke-width="1.5" filter="url(#glow)"/>
  <!-- Yeux -->
  <ellipse cx="24" cy="32" rx="3.5" ry="4.5" fill="#1a1614"/>
  <ellipse cx="40" cy="32" rx="3.5" ry="4.5" fill="#1a1614"/>
  <!-- Bouche -->
  <ellipse cx="32" cy="41" rx="3" ry="3.5" fill="#1a1614"/>
</svg>
